# xmcd CD database file
#
# Track frame offsets:
#	150
#	18310
#	38657
#	60062
#	80960
#	99987
#	126550
#	147262
#	162217
#	180340
#	203730
#	216225
#	248157
#	262055
#
# Disc length: 3788 seconds
#
# Revision: 2
# Processed by: cddbd v1.5.1PL0 Copyright (c) Steve Scherf et al.
# Submitted via: CDex 1.51
#
DISCID=bf0eca0e
DTITLE=John "Juke" Logan - Juke Rhythm
DYEAR=1998
DGENRE=Blues
TTITLE0=Love Me Like That
TTITLE1=Dancin' On The Edge Of The Razorblade
TTITLE2=I Don't Know What I Want (But I Want It Now)
TTITLE3=Life On The Center Divider (Go Figure)
TTITLE4=Comb The Streets
TTITLE5=Da' Blues Hip Hop
TTITLE6=What's It Gonna' Be
TTITLE7=Juke's Twist Palace
TTITLE8=Lone Wolf
TTITLE9=Don't Let Your Mouth Write A Check (That Your Butt Can't Cash)
TTITLE10=Twice Pipes
TTITLE11=The Real Feel
TTITLE12=Lonely Freedom
TTITLE13=Love Me Like That (Primative Mix)
EXTD=YEAR: 1998
EXTT0=
EXTT1=
EXTT2=
EXTT3=
EXTT4=
EXTT5=
EXTT6=
EXTT7=
EXTT8=
EXTT9=
EXTT10=
EXTT11=
EXTT12=
EXTT13=
PLAYORDER=
